<svg width="193" height="132" viewBox="0 0 193 132" fill="none" xmlns="http://www.w3.org/2000/svg">
<circle cx="97" cy="66" r="66" fill="#F91010"/>
<path d="M29.044 83.384C29.044 80.952 31.54 79.48 35.124 79.48C36.916 79.48 38.58 79.736 40.308 80.248C40.308 80.632 40.308 81.016 40.308 81.336C40.308 85.112 38.964 87.16 34.996 87.16C31.604 87.16 29.044 86.008 29.044 83.384ZM48.052 41.656H38.9C39.156 42.872 39.348 44.856 39.348 45.88C39.412 47.224 39.412 49.784 39.412 52.92C37.94 52.984 36.404 52.984 34.932 52.984C31.092 52.984 27.38 52.792 23.732 52.472L23.796 60.088C27.508 60.344 31.22 60.472 34.932 60.472C36.404 60.472 37.94 60.408 39.476 60.408C39.54 64.952 39.796 69.624 39.988 73.528C38.644 73.336 37.236 73.272 35.764 73.272C27.06 73.272 21.556 77.752 21.556 84.28C21.556 91 27.06 94.712 35.892 94.712C44.596 94.712 48.052 90.36 48.372 84.216C50.932 85.944 53.556 88.12 56.244 90.616L60.532 83.896C57.524 81.144 53.492 77.816 48.116 75.64C47.86 71.288 47.54 66.168 47.412 59.96C50.932 59.704 54.324 59.32 57.46 58.872V51C54.324 51.64 50.932 52.088 47.476 52.408C47.476 49.592 47.604 47.16 47.668 45.752C47.732 44.408 47.86 42.872 48.052 41.656ZM16.82 42.296L7.988 41.592C7.924 43.64 7.604 46.072 7.412 47.864C6.644 52.792 4.724 64.888 4.724 74.552C4.724 83.192 5.94 90.552 7.284 94.968L14.452 94.456C14.388 93.56 14.388 92.472 14.388 91.768C14.324 91.128 14.516 89.72 14.708 88.824C15.412 85.304 17.524 78.84 19.316 73.528L15.348 70.456C14.452 72.568 13.364 74.744 12.532 76.984C12.34 75.704 12.276 74.04 12.276 72.824C12.276 66.424 14.324 52.344 15.284 48.056C15.54 46.904 16.308 43.64 16.82 42.296ZM53.3 39.096L48.948 40.44C50.228 43 51.316 46.52 52.212 49.272L56.692 47.8C55.924 45.304 54.516 41.592 53.3 39.096ZM59.892 37.048L55.54 38.392C56.82 40.952 58.036 44.408 58.996 47.16L63.412 45.752C62.58 43.32 61.108 39.544 59.892 37.048ZM114.292 40.12H105.012C105.268 41.144 105.588 42.936 105.716 44.536C105.844 46.264 105.908 49.592 105.972 53.176C103.54 53.24 101.044 53.304 98.74 53.304C95.348 53.304 92.212 53.048 89.076 52.6V60.728C92.212 60.856 96.18 61.048 98.932 61.048C101.3 61.048 103.668 60.984 106.1 60.92C106.1 61.816 106.1 62.584 106.1 63.224C106.1 74.04 105.076 79.736 100.148 84.856C98.356 86.84 95.156 88.888 92.724 89.976L100.084 95.8C112.884 87.672 114.036 78.392 114.036 63.288C114.036 62.648 114.036 61.688 114.036 60.6C117.62 60.408 120.948 60.152 123.508 59.832L123.572 51.512C120.948 52.024 117.556 52.408 113.972 52.664C113.972 49.144 113.972 45.816 113.972 44.472C114.036 43.064 114.1 41.528 114.292 40.12ZM82.484 41.208L73.012 40.248C72.948 41.848 72.884 44.024 72.564 45.816C71.796 51 70.516 60.856 70.516 71.352C70.516 79.288 72.756 88.248 74.164 92.088L81.268 91.384C81.204 90.488 81.14 89.4 81.14 88.76C81.14 87.992 81.268 86.584 81.524 85.624C82.292 81.976 84.02 75.512 85.876 70.008L81.908 67.448C80.82 69.816 79.668 72.888 78.836 74.872C77.108 66.936 79.348 53.496 80.948 46.392C81.268 45.048 81.908 42.744 82.484 41.208ZM142.388 42.68L142.516 51.064C143.924 50.808 146.228 50.616 147.828 50.488C150.9 50.296 159.796 49.848 163.316 49.72C158.26 54.968 142.452 67.832 133.94 74.36L139.956 80.696C146.804 73.72 153.78 67.384 163.7 67.384C170.996 67.384 175.668 71.16 175.668 76.216C175.668 84.664 165.172 88.44 147.444 86.136L149.684 94.456C173.364 96.376 184.436 88.952 184.436 76.28C184.436 67.32 176.756 60.664 165.492 60.664C163.892 60.664 161.524 60.856 159.412 61.496C164.98 57.272 171.124 52.344 174.836 49.592C175.732 49.016 177.204 48.056 178.356 47.416L174.068 41.784C172.852 42.104 170.932 42.36 169.46 42.488C165.3 42.744 151.028 42.936 147.572 42.936C145.46 42.936 143.412 42.808 142.388 42.68Z" fill="white"/>
</svg>
